<svg xmlns="http://www.w3.org/2000/svg" viewBox="0 0 400 400" role="img" aria-labelledby="title desc">
<title id="title">Feather Fall spell writing circle</title>
<desc id="desc">Level: 1; School: Transmutation; Damage: None; Area: None; Range: 60 feet; Duration: 1 minute</desc>
<g stroke="#c8a84b" stroke-width="2.5" stroke-linecap="round">
<line x1="161.71" y1="44.65" x2="238.29" y2="44.65"/>
<line x1="238.29" y1="44.65" x2="306.1" y2="80.24"/>
<line x1="50.4" y1="143.26" x2="161.71" y2="44.65"/>
<line x1="93.9" y1="80.24" x2="238.29" y2="44.65"/>
<line x1="161.71" y1="44.65" x2="306.1" y2="80.24"/>
<line x1="238.29" y1="44.65" x2="349.6" y2="143.26"/>
<line x1="41.17" y1="219.29" x2="306.1" y2="80.24"/>
<line x1="93.9" y1="80.24" x2="358.83" y2="219.29"/>
<line x1="238.29" y1="44.65" x2="274.36" y2="341.67"/>
<line x1="161.71" y1="44.65" x2="274.36" y2="341.67"/>
<line x1="238.29" y1="44.65" x2="200" y2="360"/>
<circle cx="306.1" cy="80.24" r="5" fill="#e8dfc8"/>
<circle cx="349.6" cy="143.26" r="5" fill="none"/>
<circle cx="358.83" cy="219.29" r="5" fill="none"/>
<circle cx="331.68" cy="290.89" r="5" fill="none"/>
<circle cx="274.36" cy="341.67" r="5" fill="none"/>
<circle cx="200" cy="360" r="5" fill="none"/>
<circle cx="125.64" cy="341.67" r="5" fill="none"/>
<circle cx="68.32" cy="290.89" r="5" fill="none"/>
<circle cx="41.17" cy="219.29" r="5" fill="none"/>
<circle cx="50.4" cy="143.26" r="5" fill="none"/>
<circle cx="93.9" cy="80.24" r="5" fill="none"/>
<circle cx="161.71" cy="44.65" r="5" fill="none"/>
<circle cx="238.29" cy="44.65" r="5" fill="none"/>
</g>
</svg>
